GIL02_xslow2_ik
nRows=3
nColumns=375

# SIMM Motion File Header:
name GIL02_xslow2_ik
datacolumns 375
datarows 3
otherdata 1
range 1.57500000 1.59167000
endheader
time	pelvis_tx	pelvis_ty	pelvis_tz	pelvis_tilt	pelvis_list	pelvis_rotation	hip_flexion_r	hip_adduction_r	hip_rotation_r	knee_angle_r	ankle_angle_r	hip_flexion_l	hip_adduction_l	hip_rotation_l	knee_angle_l	ankle_angle_l	lumbar_extension	lumbar_bending	lumbar_rotation	subtalar_angle_r	mtp_angle_r	subtalar_angle_l	mtp_angle_l	asis_r_px	asis_r_py	asis_r_pz	asis_l_px	asis_l_py	asis_l_pz	midasis_px	midasis_py	midasis_pz	psis_r_px	psis_r_py	psis_r_pz	psis_l_px	psis_l_py	psis_l_pz	hip_r_px	hip_r_py	hip_r_pz	hip_l_px	hip_l_py	hip_l_pz	midhip_px	midhip_py	midhip_pz	epicondLat_r_px	epicondLat_r_py	epicondLat_r_pz	epicondMed_r_px	epicondMed_r_py	epicondMed_r_pz	thighwand_r_px	thighwand_r_py	thighwand_r_pz	upperleg1_r_px	upperleg1_r_py	upperleg1_r_pz	upperleg2_r_px	upperleg2_r_py	upperleg2_r_pz	malleolusLat_r_px	malleolusLat_r_py	malleolusLat_r_pz	malleolusMedv_r_px	malleolusMedv_r_py	malleolusMedv_r_pz	shankwand_r_px	shankwand_r_py	shankwand_r_pz	lowerleg1_r_px	lowerleg1_r_py	lowerleg1_r_pz	knee_r_px	knee_r_py	knee_r_pz	ankle_r_px	ankle_r_py	ankle_r_pz	toe_r_px	toe_r_py	toe_r_pz	epicondLat_l_px	epicondLat_l_py	epicondLat_l_pz	epicondMed_l_px	epicondMed_l_py	epicondMed_l_pz	thighwand_l_px	thighwand_l_py	thighwand_l_pz	upperleg1_l_px	upperleg1_l_py	upperleg1_l_pz	upperleg2_l_px	upperleg2_l_py	upperleg2_l_pz	malleolusLat_l_px	malleolusLat_l_py	malleolusLat_l_pz	malleolusMedv_l_px	malleolusMedv_l_py	malleolusMedv_l_pz	shankwand_l_px	shankwand_l_py	shankwand_l_pz	lowerleg1_l_px	lowerleg1_l_py	lowerleg1_l_pz	knee_l_px	knee_l_py	knee_l_pz	ankle_l_px	ankle_l_py	ankle_l_pz	toe_l_px	toe_l_py	toe_l_pz	subclavicle_r_px	subclavicle_r_py	subclavicle_r_pz	subclavicle_l_px	subclavicle_l_py	subclavicle_l_pz	neck_px	neck_py	neck_pz	sternalnotch_px	sternalnotch_py	sternalnotch_pz	xyphoidprocess_px	xyphoidprocess_py	xyphoidprocess_pz	midhip_tx	midhip_ty	midhip_tz	hip_r_tx	hip_r_ty	hip_r_tz	hip_l_tx	hip_l_ty	hip_l_tz	knee_r_tx	knee_r_ty	knee_r_tz	knee_l_tx	knee_l_ty	knee_l_tz	ankle_r_tx	ankle_r_ty	ankle_r_tz	ankle_l_tx	ankle_l_ty	ankle_l_tz	midasis_tx	midasis_ty	midasis_tz	asis_r_tx	asis_r_ty	asis_r_tz	asis_l_tx	asis_l_ty	asis_l_tz	psis_r_tx	psis_r_ty	psis_r_tz	psis_l_tx	psis_l_ty	psis_l_tz	epicondLat_r_tx	epicondLat_r_ty	epicondLat_r_tz	epicondLat_l_tx	epicondLat_l_ty	epicondLat_l_tz	epicondMed_r_tx	epicondMed_r_ty	epicondMed_r_tz	epicondMed_l_tx	epicondMed_l_ty	epicondMed_l_tz	malleolusLat_r_tx	malleolusLat_r_ty	malleolusLat_r_tz	malleolusLat_l_tx	malleolusLat_l_ty	malleolusLat_l_tz	malleolusMedv_r_tx	malleolusMedv_r_ty	malleolusMedv_r_tz	malleolusMedv_l_tx	malleolusMedv_l_ty	malleolusMedv_l_tz	neck_tx	neck_ty	neck_tz	subclavicle_r_tx	subclavicle_r_ty	subclavicle_r_tz	subclavicle_l_tx	subclavicle_l_ty	subclavicle_l_tz	sternalnotch_tx	sternalnotch_ty	sternalnotch_tz	xyphoidprocess_tx	xyphoidprocess_ty	xyphoidprocess_tz	thighwand_r_tx	thighwand_r_ty	thighwand_r_tz	thighwand_l_tx	thighwand_l_ty	thighwand_l_tz	upperleg1_r_tx	upperleg1_r_ty	upperleg1_r_tz	upperleg1_l_tx	upperleg1_l_ty	upperleg1_l_tz	upperleg2_r_tx	upperleg2_r_ty	upperleg2_r_tz	upperleg2_l_tx	upperleg2_l_ty	upperleg2_l_tz	shankwand_r_tx	shankwand_r_ty	shankwand_r_tz	shankwand_l_tx	shankwand_l_ty	shankwand_l_tz	lowerleg1_r_tx	lowerleg1_r_ty	lowerleg1_r_tz	lowerleg1_l_tx	lowerleg1_l_ty	lowerleg1_l_tz	toe_r_tx	toe_r_ty	toe_r_tz	toe_l_tx	toe_l_ty	toe_l_tz	ground_force_vx	ground_force_vy	ground_force_vz	ground_force_px	ground_force_py	ground_force_pz	ground_force_vx	ground_force_vy	ground_force_vz	ground_force_px	ground_force_py	ground_force_pz	ground_torque_x	ground_torque_y	ground_torque_z	ground_torque_x	ground_torque_y	ground_torque_z	ground_marker_px	ground_marker_py	ground_marker_pz	ground_marker_px	ground_marker_py	ground_marker_pz	ground_marker_px	ground_marker_py	ground_marker_pz	ground_marker_px	ground_marker_py	ground_marker_pz	ground_marker_px	ground_marker_py	ground_marker_pz	ground_marker_px	ground_marker_py	ground_marker_pz	ground_marker_px	ground_marker_py	ground_marker_pz	ground_marker_px	ground_marker_py	ground_marker_pz	ground_marker_px	ground_marker_py	ground_marker_pz	ground_marker_px	ground_marker_py	ground_marker_pz	ground_marker_px	ground_marker_py	ground_marker_pz	ground_marker_px	ground_marker_py	ground_marker_pz	ground_marker_px	ground_marker_py	ground_marker_pz	ground_marker_px	ground_marker_py	ground_marker_pz	ground_marker_px	ground_marker_py	ground_marker_pz	ground_marker_px	ground_marker_py	ground_marker_pz	ground_marker_px	ground_marker_py	ground_marker_pz	ground_marker_px	ground_marker_py	ground_marker_pz	ground_marker_px	ground_marker_py	ground_marker_pz	ground_marker_px	ground_marker_py	ground_marker_pz	ground_marker_px	ground_marker_py	ground_marker_pz	ground_marker_px	ground_marker_py	ground_marker_pz	ground_marker_px	ground_marker_py	ground_marker_pz	ground_marker_px	ground_marker_py	ground_marker_pz	ground_marker_px	ground_marker_py	ground_marker_pz	ground_marker_px	ground_marker_py	ground_marker_pz	ground_marker_px	ground_marker_py	ground_marker_pz	ground_marker_px	ground_marker_py	ground_marker_pz	ground_marker_px	ground_marker_py	ground_marker_pz	ground_marker_px	ground_marker_py	ground_marker_pz	ground_marker_px	ground_marker_py	ground_marker_pz	ground_marker_px	ground_marker_py	ground_marker_pz	ground_marker_px	ground_marker_py	ground_marker_pz	ground_marker_px	ground_marker_py	ground_marker_pz	ground_marker_px	ground_marker_py	ground_marker_pz	ground_marker_px	ground_marker_py	ground_marker_pz	ground_marker_px	ground_marker_py	ground_marker_pz
      1.57500000	      2.04106902	      0.95184748	     -0.24756363	     -0.58988060	      1.96931661	      3.76550211	      5.37453408	      0.86916988	      8.95760565	    -12.15400929	      7.36228291	     14.78568536	      2.58302629	      3.65293998	    -45.04444684	      2.63445574	     -2.43696736	      1.84125228	     -0.12137903	      0.00000000	      0.00000000	      0.00000000	      0.00000000	      2.09498998	      0.94758171	     -0.13360690	      2.08175075	      0.96235028	     -0.37093928	      2.05406504	      0.95174307	     -0.24841849	      1.90524284	      1.00702990	     -0.20637058	      1.90514553	      1.00884783	     -0.29232690	      1.97988028	      0.88820381	     -0.16789126	      1.96973242	      0.89363602	     -0.32282837	      1.97480635	      0.89091992	     -0.24535982	      2.05384259	      0.46278857	     -0.12283482	      2.00056413	      0.46963837	     -0.22121078	      2.11047969	      0.57870629	     -0.06096955	      2.10064735	      0.64623810	     -0.12847169	      2.09721804	      0.55937253	     -0.15061099	      1.95404606	      0.06019943	     -0.14840668	      1.96193563	      0.07575310	     -0.21812150	      2.01361906	      0.18386428	     -0.06449245	      1.98083498	      0.15806159	     -0.13380561	      2.01166023	      0.46997804	     -0.19058289	      1.96224992	      0.07540394	     -0.19402336	      2.08455233	      0.03441643	     -0.19055980	      2.09005757	      0.47282219	     -0.39474042	      2.07943241	      0.47535577	     -0.28461560	      2.21160881	      0.60837203	     -0.33126281	      2.13324569	      0.65076838	     -0.37187604	      2.13419720	      0.56381470	     -0.37228135	      1.84574213	      0.14161020	     -0.36856694	      1.87534970	      0.13880403	     -0.30845632	      1.93928422	      0.24645428	     -0.45363312	      1.90736146	      0.22191844	     -0.38294866	      2.07778549	      0.48215092	     -0.32492196	      1.87463933	      0.14030589	     -0.32886495	      1.95655334	      0.05649052	     -0.37598285	      2.00644553	      1.35079284	     -0.16417828	      2.01291751	      1.36146208	     -0.27178763	      1.87669667	      1.42386761	     -0.20976319	      1.99215564	      1.36309112	     -0.21543517	      2.08131734	      1.20444535	     -0.23760161	      1.97502600	      0.89665800	     -0.23744400	      1.97724300	      0.87428400	     -0.16633300	      1.96821000	      0.87964700	     -0.31639500	      2.01307200	      0.47044000	     -0.18300700	      2.07381200	      0.47170000	     -0.31937400	      1.95780500	      0.06842800	     -0.21330400	      1.87347300	      0.13282300	     -0.32592300	      2.05963000	      0.96333300	     -0.24350800	      2.06676400	      0.95909700	     -0.12499200	      2.05249700	      0.96756900	     -0.36202400	      1.87546600	      1.00466300	     -0.19845200	      1.87357800	      1.00340300	     -0.28387000	      2.02569500	      0.46920200	     -0.12589900	      2.07457000	      0.47232000	     -0.37736500	      1.97298100	      0.47640600	     -0.23562400	      2.08040100	      0.44655900	     -0.26484800	      1.95181300	      0.06627600	     -0.17381400	      1.85349600	      0.14523400	     -0.35703400	      1.96484100	      0.08333500	     -0.24227000	      1.88630500	      0.14237300	     -0.29946100	      1.87936700	      1.42942500	     -0.20879900	      2.00574200	      1.34481800	     -0.16721500	      2.00863300	      1.35109400	     -0.27247100	      1.99035600	      1.35652100	     -0.21710700	      2.06365200	      1.18966500	     -0.23658000	      2.06766800	      0.56525900	     -0.05126400	      2.21311000	      0.58031200	     -0.33201600	      2.07162700	      0.63471500	     -0.11208500	      2.13113400	      0.61607300	     -0.36670200	      2.06505400	      0.54982600	     -0.14410100	      2.12875000	      0.52694900	     -0.36237100	      2.00271300	      0.18644200	     -0.08170600	      1.93261900	      0.26178900	     -0.44014200	      1.97526800	      0.16189100	     -0.15430700	      1.90773100	      0.23171900	     -0.36868600	      2.08186200	      0.03845300	     -0.20551700	      1.95924700	      0.05643800	     -0.35298100	    -21.09991762	    640.01153235	    -10.71096837	      2.00515076	      0.00000000	     -0.21034758	      0.00000000	      0.00000000	      0.00000000	      1.67796289	      0.00000000	     -0.30418555	      0.00000000	      1.14893481	      0.00000000	      0.00000000	      0.00000000	      0.00000000	      1.97502565	      0.89665830	     -0.23744366	      1.97724271	      0.87428367	     -0.16633290	      1.96821034	      0.87964708	     -0.31639498	      2.01307154	      0.47043991	     -0.18300703	      2.07381177	      0.47170046	     -0.31937370	      1.95780492	      0.06842842	     -0.21330361	      1.87347317	      0.13282306	     -0.32592306	      2.05963039	      0.96333259	     -0.24350785	      2.06676388	      0.95909667	     -0.12499151	      2.05249691	      0.96756852	     -0.36202419	      1.87546635	      1.00466275	     -0.19845152	      1.87357771	      1.00340295	     -0.28387013	      2.02569485	      0.46920189	     -0.12589863	      2.07457018	      0.47232017	     -0.37736541	      1.97298074	      0.47640577	     -0.23562449	      2.08040071	      0.44655874	     -0.26484784	      1.95181251	      0.06627617	     -0.17381361	      1.85349643	      0.14523424	     -0.35703406	      1.96484089	      0.08333457	     -0.24227008	      1.88630486	      0.14237338	     -0.29946062	      1.87936711	      1.42942536	     -0.20879915	      2.00574207	      1.34481764	     -0.16721477	      2.00863266	      1.35109365	     -0.27247071	      1.99035633	      1.35652113	     -0.21710698	      2.06365156	      1.18966508	     -0.23658040	      2.06766820	      0.56525922	     -0.05126398	      2.21310997	      0.58031183	     -0.33201560	      2.07162714	      0.63471514	     -0.11208533	      2.13113427	      0.61607331	     -0.36670157	      2.06505418	      0.54982615	     -0.14410053	      2.12874985	      0.52694887	     -0.36237141	      2.00271297	      0.18644217	     -0.08170621	      1.93261886	      0.26178882	     -0.44014186	      1.97526836	      0.16189089	     -0.15430674	      1.90773070	      0.23171908	     -0.36868557	      2.08186173	      0.03845314	     -0.20551726	      1.95924664	      0.05643781	     -0.35298070
      1.58333000	      2.04401512	      0.95191350	     -0.24744332	     -0.60539039	      2.08434892	      3.76170487	      5.17977596	      0.80553920	      9.16231361	    -12.14660815	      7.48993171	     15.32380582	      2.73548975	      3.58162940	    -44.10670259	      3.40303216	     -2.45916099	      1.71138606	     -0.11423788	      0.00000000	      0.00000000	      0.00000000	      0.00000000	      2.09792495	      0.94740432	     -0.13349070	      2.08471051	      0.96265277	     -0.37079411	      2.05701119	      0.95180726	     -0.24829725	      1.90820041	      1.00705024	     -0.20615141	      1.90811111	      1.00904070	     -0.29210392	      1.98280204	      0.88812679	     -0.16790415	      1.97266922	      0.89387270	     -0.32283093	      1.97773563	      0.89099974	     -0.24536754	      2.05547672	      0.46244504	     -0.12327147	      2.00187814	      0.46951488	     -0.22145779	      2.11272305	      0.57814519	     -0.06155983	      2.10288404	      0.64573691	     -0.12900100	      2.09908244	      0.55889232	     -0.15116180	      1.95427485	      0.06019908	     -0.14866167	      1.96197172	      0.07575670	     -0.21839716	      2.01454451	      0.18363271	     -0.06490462	      1.98143439	      0.15796693	     -0.13411356	      2.01308074	      0.46980523	     -0.19086837	      1.96236903	      0.07539621	     -0.19430041	      2.08463650	      0.03427287	     -0.19123654	      2.09687097	      0.47416992	     -0.39464506	      2.08623477	      0.47663441	     -0.28451974	      2.21717102	      0.61085429	     -0.33121675	      2.13841498	      0.65251376	     -0.37183250	      2.14017011	      0.56557247	     -0.37221493	      1.86110513	      0.13719468	     -0.36834096	      1.89077428	      0.13517079	     -0.30822927	      1.95193271	      0.24436674	     -0.45344769	      1.92064802	      0.21904885	     -0.38275375	      2.08435208	      0.48358230	     -0.32482772	      1.89002588	      0.13664609	     -0.32863848	      1.97506753	      0.05615741	     -0.37601470	      2.00958516	      1.35085755	     -0.16400921	      2.01604460	      1.36149450	     -0.27162251	      1.87986525	      1.42398481	     -0.20959232	      1.99529291	      1.36314913	     -0.21526704	      2.08437168	      1.20445287	     -0.23740542	      1.97875300	      0.89766100	     -0.23745200	      1.97976500	      0.87408800	     -0.16622100	      1.97078000	      0.87973200	     -0.31627600	      2.01429200	      0.47025500	     -0.18312400	      2.08035600	      0.47257500	     -0.31896800	      1.95774200	      0.06857400	     -0.21354100	      1.88877700	      0.12843600	     -0.32604300	      2.06217900	      0.96327900	     -0.24320400	      2.06927200	      0.95882400	     -0.12475000	      2.05508600	      0.96773400	     -0.36165900	      1.87807300	      1.00457500	     -0.19826700	      1.87608700	      1.00339200	     -0.28390500	      2.02709800	      0.46896200	     -0.12605700	      2.08111400	      0.47316200	     -0.37696000	      1.97722000	      0.47463600	     -0.23583000	      2.08650800	      0.44790500	     -0.26400100	      1.95190000	      0.06640400	     -0.17402900	      1.86860000	      0.14031000	     -0.35723300	      1.96437800	      0.08334400	     -0.24277300	      1.90234200	      0.13842300	     -0.29966500	      1.88236500	      1.42942500	     -0.20869600	      2.00890500	      1.34465800	     -0.16721900	      2.01178100	      1.35087500	     -0.27239100	      1.99360500	      1.35645000	     -0.21683700	      2.06672800	      1.18944000	     -0.23647200	      2.06956700	      0.56493400	     -0.05160200	      2.21806200	      0.58256300	     -0.33163000	      2.07272800	      0.63428700	     -0.11229200	      2.13573600	      0.61720800	     -0.36665400	      2.06772200	      0.55011700	     -0.14387200	      2.13419600	      0.52842200	     -0.36189200	      2.00349600	      0.18618700	     -0.08203900	      1.94497700	      0.25883300	     -0.44015800	      1.97587000	      0.16194900	     -0.15433800	      1.91978900	      0.22819700	     -0.36898900	      2.08182200	      0.03844900	     -0.20558200	      1.97742900	      0.05546700	     -0.35352600	    -19.59973677	    642.10046486	    -10.70318900	      2.00514136	      0.00000000	     -0.21071489	      0.00000000	      0.00000000	      0.00000000	      1.67837317	      0.00000000	     -0.30361252	      0.00000000	      1.21735815	      0.00000000	      0.00000000	      0.00000000	      0.00000000	      1.97875309	      0.89766121	     -0.23745167	      1.97976506	      0.87408805	     -0.16622134	      1.97077990	      0.87973177	     -0.31627598	      2.01429176	      0.47025523	     -0.18312363	      2.08035636	      0.47257450	     -0.31896770	      1.95774174	      0.06857379	     -0.21354078	      1.88877749	      0.12843551	     -0.32604271	      2.06217909	      0.96327877	     -0.24320418	      2.06927228	      0.95882362	     -0.12474956	      2.05508614	      0.96773398	     -0.36165878	      1.87807286	      1.00457454	     -0.19826671	      1.87608731	      1.00339198	     -0.28390482	      2.02709770	      0.46896157	     -0.12605712	      2.08111382	      0.47316176	     -0.37695980	      1.97721970	      0.47463626	     -0.23582993	      2.08650756	      0.44790509	     -0.26400062	      1.95189989	      0.06640422	     -0.17402917	      1.86859965	      0.14030956	     -0.35723346	      1.96437800	      0.08334374	     -0.24277332	      1.90234232	      0.13842286	     -0.29966453	      1.88236511	      1.42942512	     -0.20869592	      2.00890517	      1.34465837	     -0.16721863	      2.01178050	      1.35087502	     -0.27239081	      1.99360549	      1.35644996	     -0.21683674	      2.06672788	      1.18944049	     -0.23647155	      2.06956697	      0.56493443	     -0.05160233	      2.21806169	      0.58256322	     -0.33162969	      2.07272792	      0.63428670	     -0.11229207	      2.13573575	      0.61720800	     -0.36665386	      2.06772232	      0.55011696	     -0.14387248	      2.13419580	      0.52842194	     -0.36189249	      2.00349617	      0.18618652	     -0.08203927	      1.94497728	      0.25883275	     -0.44015849	      1.97587049	      0.16194932	     -0.15433758	      1.91978943	      0.22819719	     -0.36898932	      2.08182192	      0.03844905	     -0.20558231	      1.97742879	      0.05546669	     -0.35352558
      1.59167000	      2.04678669	      0.95186952	     -0.24742824	     -0.61324499	      2.19938059	      3.76202499	      4.97702134	      0.73519456	      9.37249428	    -12.13185813	      7.66950010	     15.83560453	      2.89467677	      3.53369018	    -43.10823935	      4.07010533	     -2.53197138	      1.62671921	     -0.33519616	      0.00000000	      0.00000000	      0.00000000	      0.00000000	      2.10069408	      0.94712419	     -0.13348406	      2.08748551	      0.96285083	     -0.37075659	      2.05978276	      0.95176321	     -0.24828218	      1.91097887	      1.00694184	     -0.20602784	      1.91089120	      1.00910486	     -0.29197618	      1.98556361	      0.88793162	     -0.16801825	      1.97543404	      0.89398995	     -0.32293334	      1.98049883	      0.89096078	     -0.24547580	      2.05696122	      0.46199407	     -0.12376653	      2.00302676	      0.46927259	     -0.22175347	      2.11482478	      0.57748269	     -0.06223459	      2.10496696	      0.64512616	     -0.12962111	      2.10079027	      0.55830113	     -0.15179101	      1.95440558	      0.06008342	     -0.14891621	      1.96189576	      0.07564038	     -0.21867434	      2.01536785	      0.18329947	     -0.06534024	      1.98192432	      0.15776084	     -0.13443581	      2.01433929	      0.46951764	     -0.19120453	      1.96238016	      0.07527052	     -0.19457934	      2.08465332	      0.03413632	     -0.19191404	      2.10339477	      0.47539005	     -0.39458488	      2.09270700	      0.47779315	     -0.28446319	      2.22245332	      0.61316159	     -0.33116616	      2.14333983	      0.65410438	     -0.37181597	      2.14587064	      0.56718210	     -0.37217118	      1.87656393	      0.13272932	     -0.36821983	      1.90625239	      0.13151366	     -0.30809589	      1.96457020	      0.24222028	     -0.45333907	      1.93393546	      0.21611747	     -0.38264594	      2.09059096	      0.48489672	     -0.32477397	      1.90547343	      0.13295993	     -0.32850604	      1.99345765	      0.05581135	     -0.37606538	      2.01258781	      1.35070012	     -0.16354777	      2.01946549	      1.36135219	     -0.27113365	      1.88315245	      1.42403903	     -0.20959736	      1.99850610	      1.36302581	     -0.21485566	      2.08742094	      1.20419683	     -0.23669932	      1.98189500	      0.89814100	     -0.23779100	      1.98228400	      0.87384700	     -0.16613600	      1.97333800	      0.87978400	     -0.31618100	      2.01545300	      0.47003100	     -0.18326300	      2.08669300	      0.47340100	     -0.31859000	      1.95761600	      0.06865700	     -0.21375600	      1.90425400	      0.12417400	     -0.32616300	      2.06471700	      0.96318900	     -0.24292200	      2.07177700	      0.95850300	     -0.12449700	      2.05765600	      0.96787500	     -0.36134700	      1.88069500	      1.00442500	     -0.19808100	      1.87864800	      1.00333500	     -0.28388600	      2.02845000	      0.46868000	     -0.12624100	      2.08747400	      0.47396300	     -0.37658200	      1.97936600	      0.47372500	     -0.23569900	      2.09371500	      0.44824700	     -0.26406300	      1.95193800	      0.06647200	     -0.17422200	      1.88389300	      0.13549000	     -0.35744200	      1.96382700	      0.08328700	     -0.24314900	      1.91800500	      0.13458800	     -0.29989300	      1.88565300	      1.42935100	     -0.20860500	      2.01181100	      1.34468200	     -0.16722000	      2.01507400	      1.35069000	     -0.27181600	      1.99687300	      1.35633600	     -0.21660300	      2.06974100	      1.18928000	     -0.23570900	      2.07146600	      0.56459500	     -0.05191100	      2.22287200	      0.58475400	     -0.33120700	      2.07393100	      0.63386200	     -0.11233800	      2.14032000	      0.61851500	     -0.36599100	      2.06952800	      0.55000400	     -0.14386400	      2.14016000	      0.53010800	     -0.36161900	      2.00426700	      0.18592500	     -0.08235600	      1.95741800	      0.25591900	     -0.44019800	      1.97648800	      0.16183000	     -0.15432100	      1.93317100	      0.22494000	     -0.36935600	      2.08180700	      0.03848300	     -0.20560900	      1.99561900	      0.05461200	     -0.35390000	    -18.14900725	    643.78904371	    -10.78720225	      2.00513782	      0.00000000	     -0.21103563	      0.00000000	      0.00000000	      0.00000000	      1.67883264	      0.00000000	     -0.30297809	      0.00000000	      1.27210242	      0.00000000	      0.00000000	      0.00000000	      0.00000000	      1.98189545	      0.89814091	     -0.23779060	      1.98228359	      0.87384683	     -0.16613573	      1.97333777	      0.87978417	     -0.31618139	      2.01545310	      0.47003144	     -0.18326333	      2.08669305	      0.47340146	     -0.31858993	      1.95761621	      0.06865738	     -0.21375613	      1.90425396	      0.12417436	     -0.32616299	      2.06471658	      0.96318936	     -0.24292208	      2.07177711	      0.95850319	     -0.12449687	      2.05765605	      0.96787548	     -0.36134729	      1.88069534	      1.00442505	     -0.19808078	      1.87864769	      1.00333536	     -0.28388575	      2.02844977	      0.46868038	     -0.12624128	      2.08747411	      0.47396299	     -0.37658194	      1.97936642	      0.47372523	     -0.23569910	      2.09371471	      0.44824716	     -0.26406282	      1.95193827	      0.06647207	     -0.17422153	      1.88389266	      0.13548951	     -0.35744220	      1.96382678	      0.08328679	     -0.24314944	      1.91800499	      0.13458785	     -0.29989350	      1.88565290	      1.42935061	     -0.20860451	      2.01181054	      1.34468222	     -0.16721995	      2.01507401	      1.35068977	     -0.27181572	      1.99687338	      1.35633624	     -0.21660315	      2.06974149	      1.18927991	     -0.23570929	      2.07146621	      0.56459516	     -0.05191065	      2.22287178	      0.58475441	     -0.33120671	      2.07393074	      0.63386160	     -0.11233815	      2.14031982	      0.61851466	     -0.36599055	      2.06952834	      0.55000412	     -0.14386450	      2.14016032	      0.53010809	     -0.36161900	      2.00426698	      0.18592504	     -0.08235584	      1.95741785	      0.25591898	     -0.44019830	      1.97648835	      0.16183008	     -0.15432060	      1.93317056	      0.22493982	     -0.36935630	      2.08180690	      0.03848301	     -0.20560853	      1.99561882	      0.05461239	     -0.35390010
